<svg width="283" height="205" viewBox="0 0 283 205" fill="none" xmlns="http://www.w3.org/2000/svg">
<path d="M179.874 128.083C145.721 128.083 77.541 145.096 77.541 179.25V204.833H282.208V179.25C282.208 145.096 214.028 128.083 179.874 128.083ZM64.7493 76.9167V38.5417H39.166V76.9167H0.791016V102.5H39.166V140.875H64.7493V102.5H103.124V76.9167M179.874 102.5C193.445 102.5 206.459 97.1093 216.055 87.5137C225.65 77.9181 231.041 64.9037 231.041 51.3334C231.041 37.7632 225.65 24.7487 216.055 15.1531C206.459 5.5575 193.445 0.166748 179.874 0.166748C166.304 0.166748 153.29 5.5575 143.694 15.1531C134.098 24.7487 128.708 37.7632 128.708 51.3334C128.708 64.9037 134.098 77.9181 143.694 87.5137C153.29 97.1093 166.304 102.5 179.874 102.5Z" fill="#4A0472" fill-opacity="0.72"/>
</svg>
