<svg width="307" height="307" viewBox="0 0 307 307" fill="none" xmlns="http://www.w3.org/2000/svg">
<path d="M191.874 179.083C157.721 179.083 89.541 196.096 89.541 230.25V255.833H294.208V230.25C294.208 196.096 226.028 179.083 191.874 179.083ZM76.7493 127.917V89.5416H51.166V127.917H12.791V153.5H51.166V191.875H76.7493V153.5H115.124V127.917M191.874 153.5C205.445 153.5 218.459 148.109 228.055 138.514C237.65 128.918 243.041 115.904 243.041 102.333C243.041 88.7631 237.65 75.7486 228.055 66.153C218.459 56.5574 205.445 51.1666 191.874 51.1666C178.304 51.1666 165.29 56.5574 155.694 66.153C146.098 75.7486 140.708 88.7631 140.708 102.333C140.708 115.904 146.098 128.918 155.694 138.514C165.29 148.109 178.304 153.5 191.874 153.5Z" fill="#4A0472" fill-opacity="0.72"/>
</svg>
