<svg width="307" height="307" viewBox="0 0 307 307" fill="none" xmlns="http://www.w3.org/2000/svg">
<path d="M130.236 36.8398C52.6757 36.8398 6.14062 99.0565 6.14062 130.168C6.14062 161.279 21.6503 184.611 52.6757 184.611C83.7011 184.611 99.2169 192.384 99.2169 215.716C99.2169 246.822 122.481 270.154 153.507 270.154C254.338 270.154 300.867 215.716 300.867 161.279C300.861 67.9512 223.288 36.8398 130.236 36.8398ZM110.846 67.9512C113.396 67.9528 115.921 68.4571 118.276 69.4352C120.631 70.4133 122.77 71.846 124.571 73.6514C126.372 75.4568 127.799 77.5995 128.771 79.957C129.743 82.3145 130.241 84.8404 130.236 87.3905C130.236 98.1355 121.554 106.836 110.846 106.836C100.138 106.836 91.4559 98.1293 91.4559 87.3905C91.4511 84.8404 91.949 82.3145 92.9211 79.957C93.8932 77.5995 95.3205 75.4568 97.1214 73.6514C98.9222 71.846 101.061 70.4133 103.416 69.4352C105.771 68.4571 108.296 67.9528 110.846 67.9512ZM172.885 67.9512C175.435 67.9528 177.959 68.4571 180.314 69.4352C182.669 70.4133 184.808 71.846 186.609 73.6514C188.41 75.4568 189.837 77.5995 190.81 79.957C191.782 82.3145 192.28 84.8404 192.275 87.3905C192.28 89.941 191.783 92.4676 190.811 94.8258C189.84 97.184 188.412 99.3274 186.611 101.133C184.811 102.94 182.671 104.373 180.316 105.351C177.96 106.33 175.435 106.834 172.885 106.836C170.335 106.833 167.81 106.328 165.455 105.35C163.101 104.371 160.962 102.937 159.162 101.131C157.361 99.3253 155.935 97.1822 154.963 94.8244C153.992 92.4666 153.495 89.9405 153.501 87.3905C153.496 84.841 153.993 82.3155 154.965 79.9584C155.937 77.6014 157.364 75.4589 159.164 73.6536C160.964 71.8482 163.102 70.4154 165.457 69.437C167.811 68.4585 170.335 67.9536 172.885 67.9512ZM234.935 99.0565C237.487 99.0573 240.012 99.5611 242.368 100.539C244.725 101.517 246.865 102.951 248.666 104.757C250.468 106.563 251.896 108.707 252.868 111.065C253.84 113.424 254.337 115.951 254.332 118.502C254.337 121.052 253.838 123.579 252.866 125.937C251.893 128.295 250.466 130.438 248.664 132.243C246.863 134.049 244.723 135.481 242.367 136.459C240.011 137.437 237.486 137.94 234.935 137.941C232.386 137.939 229.862 137.434 227.508 136.455C225.153 135.477 223.015 134.044 221.215 132.239C219.415 130.433 217.988 128.291 217.016 125.934C216.044 123.577 215.547 121.051 215.551 118.502C215.546 115.952 216.043 113.426 217.014 111.068C217.986 108.71 219.412 106.567 221.213 104.761C223.013 102.955 225.152 101.522 227.506 100.543C229.861 99.5639 232.385 99.0589 234.935 99.0565ZM56.5562 114.615C59.1052 114.618 61.6287 115.122 63.9826 116.1C66.3365 117.078 68.4746 118.511 70.2747 120.315C72.0748 122.12 73.5017 124.262 74.4738 126.618C75.4459 128.975 75.9442 131.499 75.9401 134.048C75.9401 144.793 67.2582 153.494 56.5562 153.494C45.8541 153.494 37.166 144.787 37.166 134.048C37.162 131.499 37.6605 128.974 38.633 126.617C39.6055 124.26 41.0329 122.118 42.8337 120.313C44.6344 118.508 46.7733 117.076 49.1279 116.099C51.4825 115.121 54.0067 114.617 56.5562 114.615ZM153.501 192.384C166.352 192.384 176.765 202.822 176.765 215.723C176.765 228.604 166.352 239.048 153.501 239.048C140.65 239.048 130.236 228.604 130.236 215.723C130.231 212.662 130.828 209.631 131.994 206.802C133.16 203.973 134.873 201.401 137.033 199.234C139.194 197.066 141.76 195.346 144.585 194.171C147.411 192.995 150.44 192.388 153.501 192.384Z" fill="#4A0472" fill-opacity="0.72"/>
</svg>
