<svg width="307" height="307" viewBox="0 0 307 307" fill="none" xmlns="http://www.w3.org/2000/svg">
<path d="M276.852 131.015L202.884 104.116L175.986 30.1486C174.308 25.5324 171.25 21.5444 167.227 18.7263C163.204 15.9082 158.412 14.3965 153.5 14.3965C148.589 14.3965 143.796 15.9082 139.773 18.7263C135.751 21.5444 132.693 25.5324 131.015 30.1486L104.116 104.116L30.1486 131.015C25.5324 132.693 21.5444 135.751 18.7263 139.773C15.9082 143.796 14.3965 148.589 14.3965 153.5C14.3965 158.412 15.9082 163.204 18.7263 167.227C21.5444 171.25 25.5324 174.308 30.1486 175.986L104.116 202.884L131.015 276.852C132.693 281.468 135.751 285.456 139.773 288.274C143.796 291.092 148.589 292.604 153.5 292.604C158.412 292.604 163.204 291.092 167.227 288.274C171.25 285.456 174.308 281.468 175.986 276.852L202.884 202.884L276.852 175.986C281.468 174.308 285.456 171.25 288.274 167.227C291.092 163.204 292.604 158.412 292.604 153.5C292.604 148.589 291.092 143.796 288.274 139.773C285.456 135.751 281.468 132.693 276.852 131.015ZM186.743 178.132C184.765 178.851 182.969 179.994 181.482 181.482C179.994 182.969 178.851 184.765 178.132 186.743L153.5 254.486L128.868 186.743C128.15 184.765 127.006 182.969 125.519 181.482C124.031 179.994 122.235 178.851 120.258 178.132L52.514 153.5L120.258 128.868C122.235 128.15 124.031 127.006 125.519 125.519C127.006 124.031 128.15 122.235 128.868 120.258L153.5 52.514L178.132 120.258C178.851 122.235 179.994 124.031 181.482 125.519C182.969 127.006 184.765 128.15 186.743 128.868L254.486 153.5L186.743 178.132Z" fill="#4A0472" fill-opacity="0.72"/>
</svg>
