<svg width="307" height="307" viewBox="0 0 307 307" fill="none" xmlns="http://www.w3.org/2000/svg">
<path d="M261.248 226.585L191.875 131.195V38.375H211.063V19.1875H95.9378V38.375H115.125V131.195L45.7529 226.585C41.5684 232.336 39.0565 239.133 38.4952 246.223C37.934 253.313 39.3451 260.42 42.5726 266.757C45.8 273.095 50.7179 278.416 56.7821 282.132C62.8463 285.848 69.8204 287.814 76.9326 287.812H230.058C237.171 287.814 244.145 285.848 250.209 282.132C256.273 278.416 261.191 273.095 264.418 266.757C267.646 260.42 269.057 253.313 268.496 246.223C267.934 239.133 265.423 232.336 261.238 226.585M134.313 137.43V38.375H172.688V137.43L198.332 172.688H108.669L134.313 137.43ZM230.068 268.625H76.9422C73.3713 268.621 69.8709 267.631 66.8273 265.763C63.7838 263.896 61.3154 261.223 59.6947 258.041C58.074 254.859 57.3639 251.292 57.6429 247.732C57.9218 244.172 59.179 240.758 61.2756 237.867L94.7194 191.875H212.281L245.735 237.867C247.831 240.758 249.088 244.172 249.367 247.732C249.646 251.292 248.936 254.859 247.315 258.041C245.695 261.223 243.226 263.896 240.183 265.763C237.139 267.631 233.639 268.621 230.068 268.625Z" fill="#4A0472" fill-opacity="0.72"/>
</svg>
