<svg width="277" height="284" viewBox="0 0 277 284" fill="none" xmlns="http://www.w3.org/2000/svg">
<g filter="url(#filter0_d_13_26)">
<path fill-rule="evenodd" clip-rule="evenodd" d="M79.6245 205.178C54.9181 188.823 37.7048 163.339 31.7581 134.312C24.2971 134.066 17.2255 130.923 12.0434 125.55C6.8612 120.177 3.97613 112.996 4.00015 105.531C4.00015 89.9254 16.9197 76.75 32.7814 76.75H35.2118C50.306 31.2117 92.9022 0 141.511 0C190.119 0 232.971 31.3396 247.937 77.0058C261.88 79.0525 272.625 90.9487 272.625 105.531C272.625 118.835 263.671 129.963 251.391 133.289C248.56 147.86 242.856 161.72 234.611 174.063C226.366 186.406 215.747 196.983 203.371 205.178C219.049 221.318 227.83 242.926 227.854 265.427C227.854 270.672 223.505 275.021 218.261 275.021C213.016 275.021 208.667 270.672 208.667 265.427C208.655 255.831 206.595 246.349 202.624 237.613C198.654 228.878 192.864 221.09 185.642 214.772C171.705 220.777 156.686 223.867 141.511 223.854C126.336 223.872 111.318 220.785 97.3793 214.785L97.1235 215.028C82.6689 227.82 74.3543 246.24 74.3543 265.427C74.3543 270.672 70.0051 275.021 64.7606 275.021C59.516 275.021 55.1668 270.672 55.1668 265.427C55.1668 242.914 63.9931 221.232 79.6245 205.178ZM141.511 49.1072C134.239 63.1974 123.234 75.0173 109.698 83.2743C96.1621 91.5313 80.6163 95.9076 64.7606 95.9247H45.5731C45.0465 95.9145 44.521 95.8718 43.9997 95.7968C43.4614 95.8739 42.9188 95.9167 42.3751 95.9247H32.7814C27.5368 95.9247 23.1877 100.274 23.1877 105.518C23.1877 110.763 27.5368 115.112 32.7814 115.112H39.9447C44.8056 115.112 48.8989 118.694 49.4106 123.555C55.1668 169.861 94.6931 204.654 141.511 204.654C188.328 204.654 227.854 169.733 233.611 123.555C234.25 118.694 238.343 115.112 243.076 115.112C249.088 115.112 253.438 110.763 253.438 105.518C253.438 100.274 249.088 95.9247 243.844 95.9247H240.646C240.111 95.9156 239.577 95.8728 239.047 95.7968C238.517 95.8728 237.983 95.9156 237.448 95.9247H218.261C202.405 95.9076 186.859 91.5313 173.323 83.2743C159.787 75.0173 148.782 63.1974 141.511 49.1072ZM227.304 76.7372H218.261C184.746 76.7372 156.809 51.9342 151.872 19.7631C168.399 21.6235 184.121 27.894 197.392 37.9176C210.663 47.9413 220.995 61.3493 227.304 76.7372ZM64.7606 76.7372C98.2747 76.7372 126.212 51.9342 131.149 19.7631C114.616 21.617 98.8852 27.8844 85.6068 37.9085C72.3284 47.9326 61.9911 61.3441 55.6785 76.7372H64.7606ZM141.511 185.466C129.231 185.466 119.125 175.361 119.125 163.081C119.125 157.836 123.474 153.487 128.719 153.487H154.302C159.547 153.487 163.896 157.836 163.896 163.081C163.896 175.361 153.791 185.466 141.511 185.466ZM103.136 124.834C96.1001 124.834 90.3439 119.078 90.3439 112.042C90.3439 105.007 96.1001 99.2505 103.136 99.2505C110.171 99.2505 115.927 104.879 115.927 112.042C115.927 119.206 110.171 124.962 103.136 124.962V124.834ZM167.094 112.042C167.094 119.078 172.85 124.834 179.886 124.834V124.962C186.921 124.962 192.677 119.206 192.677 112.042C192.677 104.879 186.921 99.2505 179.886 99.2505C172.85 99.2505 167.094 105.007 167.094 112.042Z" fill="#4A0472" fill-opacity="0.72" shape-rendering="crispEdges"/>
</g>
<defs>
<filter id="filter0_d_13_26" x="0" y="0" width="276.625" height="283.021" filterUnits="userSpaceOnUse" color-interpolation-filters="sRGB">
<feFlood flood-opacity="0" result="BackgroundImageFix"/>
<feColorMatrix in="SourceAlpha" type="matrix" values="0 0 0 0 0 0 0 0 0 0 0 0 0 0 0 0 0 0 127 0" result="hardAlpha"/>
<feOffset dy="4"/>
<feGaussianBlur stdDeviation="2"/>
<feComposite in2="hardAlpha" operator="out"/>
<feColorMatrix type="matrix" values="0 0 0 0 0 0 0 0 0 0 0 0 0 0 0 0 0 0 0.25 0"/>
<feBlend mode="normal" in2="BackgroundImageFix" result="effect1_dropShadow_13_26"/>
<feBlend mode="normal" in="SourceGraphic" in2="effect1_dropShadow_13_26" result="shape"/>
</filter>
</defs>
</svg>
