<svg width="307" height="307" viewBox="0 0 307 307" fill="none" xmlns="http://www.w3.org/2000/svg">
<path d="M204.666 115.126H275.02L204.666 44.7715V115.126ZM89.541 25.584H217.458L294.208 102.334V230.251C294.208 237.036 291.512 243.543 286.714 248.341C281.917 253.139 275.409 255.834 268.624 255.834H89.541C82.7559 255.834 76.2487 253.139 71.4509 248.341C66.6531 243.543 63.9577 237.036 63.9577 230.251V51.1673C63.9577 44.3822 66.6531 37.875 71.4509 33.0772C76.2487 28.2794 82.7559 25.584 89.541 25.584ZM38.3743 76.7506V281.417H268.624V307.001H38.3743C31.5892 307.001 25.082 304.305 20.2842 299.507C15.4864 294.71 12.791 288.202 12.791 281.417V76.7506H38.3743Z" fill="#4A0472" fill-opacity="0.72"/>
</svg>
