<svg width="307" height="307" viewBox="0 0 307 307" fill="none" xmlns="http://www.w3.org/2000/svg">
<path d="M119.82 28.7812H187.18C201.149 28.7812 212.227 28.7812 221.142 29.5104C230.276 30.2523 237.989 31.8129 245.05 35.3945C256.481 41.2256 265.773 50.5261 271.593 61.9628C275.187 68.9982 276.748 76.7244 277.49 85.8577C278.219 94.7735 278.219 105.851 278.219 119.82V187.18C278.219 201.149 278.219 212.227 277.49 221.142C276.748 230.276 275.187 237.989 271.605 245.05C265.778 256.479 256.482 265.771 245.05 271.593C237.989 275.187 230.276 276.748 221.142 277.49C212.227 278.219 201.149 278.219 187.18 278.219H119.82C105.851 278.219 94.7735 278.219 85.8577 277.49C76.7244 276.748 69.011 275.187 61.9628 271.605C50.5289 265.78 41.2328 256.484 35.4073 245.05C31.8129 237.989 30.2523 230.276 29.5104 221.142C28.7812 212.227 28.7812 201.149 28.7812 187.18V119.82C28.7812 105.851 28.7812 94.7735 29.5104 85.8577C30.2523 76.7244 31.8129 69.011 35.3945 61.9628C41.2234 50.5269 50.5241 41.2307 61.9628 35.4073C68.9982 31.8129 76.7244 30.2523 85.8577 29.5104C94.7735 28.7812 105.851 28.7812 119.82 28.7812ZM121.521 87.9427C121.521 85.3983 120.51 82.9581 118.711 81.1589C116.912 79.3597 114.472 78.349 111.927 78.349C109.383 78.349 106.942 79.3597 105.143 81.1589C103.344 82.9581 102.333 85.3983 102.333 87.9427V103.932H86.3438C83.7993 103.932 81.3591 104.943 79.5599 106.742C77.7608 108.541 76.75 110.982 76.75 113.526C76.75 116.07 77.7608 118.511 79.5599 120.31C81.3591 122.109 83.7993 123.12 86.3438 123.12H102.333V139.109C102.333 141.654 103.344 144.094 105.143 145.893C106.942 147.692 109.383 148.703 111.927 148.703C114.472 148.703 116.912 147.692 118.711 145.893C120.51 144.094 121.521 141.654 121.521 139.109V123.12H137.51C140.055 123.12 142.495 122.109 144.294 120.31C146.093 118.511 147.104 116.07 147.104 113.526C147.104 110.982 146.093 108.541 144.294 106.742C142.495 104.943 140.055 103.932 137.51 103.932H121.521V87.9427ZM175.885 87.9427C173.341 87.9427 170.901 88.9535 169.102 90.7527C167.302 92.5518 166.292 94.992 166.292 97.5365C166.292 100.081 167.302 102.521 169.102 104.32C170.901 106.119 173.341 107.13 175.885 107.13H220.656C223.201 107.13 225.641 106.119 227.44 104.32C229.239 102.521 230.25 100.081 230.25 97.5365C230.25 94.992 229.239 92.5518 227.44 90.7527C225.641 88.9535 223.201 87.9427 220.656 87.9427H175.885ZM166.292 129.516C166.292 134.811 170.59 139.109 175.885 139.109H220.656C223.201 139.109 225.641 138.099 227.44 136.299C229.239 134.5 230.25 132.06 230.25 129.516C230.25 126.971 229.239 124.531 227.44 122.732C225.641 120.933 223.201 119.922 220.656 119.922H175.885C173.341 119.922 170.901 120.933 169.102 122.732C167.302 124.531 166.292 126.971 166.292 129.516ZM187.142 176.09C186.264 175.148 185.205 174.391 184.028 173.867C182.851 173.343 181.581 173.061 180.292 173.038C179.004 173.015 177.725 173.252 176.53 173.735C175.336 174.217 174.25 174.936 173.339 175.847C172.428 176.758 171.71 177.843 171.228 179.037C170.745 180.232 170.508 181.511 170.531 182.8C170.554 184.088 170.836 185.358 171.36 186.535C171.884 187.712 172.64 188.771 173.583 189.649L184.891 200.97L173.583 212.278C172.64 213.156 171.884 214.215 171.36 215.392C170.836 216.569 170.554 217.839 170.531 219.127C170.508 220.416 170.745 221.695 171.228 222.89C171.71 224.084 172.428 225.169 173.339 226.08C174.25 226.991 175.336 227.71 176.53 228.192C177.725 228.675 179.004 228.912 180.292 228.889C181.581 228.866 182.851 228.584 184.028 228.06C185.205 227.535 186.264 226.779 187.142 225.837L198.45 214.529L209.758 225.837C211.576 227.532 213.982 228.454 216.467 228.41C218.953 228.366 221.324 227.36 223.082 225.602C224.84 223.844 225.846 221.473 225.89 218.987C225.934 216.502 225.012 214.096 223.317 212.278L212.022 200.97L223.33 189.662C225.024 187.843 225.947 185.438 225.903 182.953C225.859 180.467 224.852 178.096 223.095 176.338C221.337 174.58 218.965 173.573 216.48 173.53C213.995 173.486 211.589 174.408 209.771 176.103L198.45 187.398L187.142 176.09ZM79.9479 199.87C79.9479 205.166 84.2459 209.464 89.5417 209.464H134.312C136.857 209.464 139.297 208.453 141.096 206.654C142.895 204.854 143.906 202.414 143.906 199.87C143.906 197.325 142.895 194.885 141.096 193.086C139.297 191.287 136.857 190.276 134.312 190.276H89.5417C86.9972 190.276 84.557 191.287 82.7579 193.086C80.9587 194.885 79.9479 197.325 79.9479 199.87Z" fill="#4A0472" fill-opacity="0.72"/>
</svg>
