<svg width="307" height="307" viewBox="0 0 307 307" fill="none" xmlns="http://www.w3.org/2000/svg">
<path d="M268.626 38.375V198.271C268.626 210.145 263.909 221.532 255.513 229.929C247.116 238.325 235.729 243.042 223.855 243.042C211.981 243.042 200.593 238.325 192.197 229.929C183.801 221.532 179.084 210.145 179.084 198.271C179.084 186.397 183.801 175.009 192.197 166.613C200.593 158.217 211.981 153.5 223.855 153.5C230.762 153.5 237.286 155.035 243.042 157.849V82.7621L115.126 110.008V223.854C115.126 235.728 110.409 247.116 102.013 255.512C93.6164 263.908 82.2288 268.625 70.3548 268.625C58.4809 268.625 47.0932 263.908 38.6971 255.512C30.3009 247.116 25.584 235.728 25.584 223.854C25.584 211.98 30.3009 200.593 38.6971 192.196C47.0932 183.8 58.4809 179.083 70.3548 179.083C77.2623 179.083 83.7861 180.618 89.5423 183.433V76.75L268.626 38.375Z" fill="#4A0472" fill-opacity="0.72"/>
</svg>
