<svg width="307" height="307" viewBox="0 0 307 307" fill="none" xmlns="http://www.w3.org/2000/svg">
<path d="M278.871 82.1801C274.896 73.1633 269.677 64.7478 263.368 57.1787L229.924 90.6226C237.753 95.256 246.976 96.951 255.941 95.4041C264.906 93.8572 273.028 89.1693 278.852 82.1801M216.339 77.057L249.783 43.6132C242.22 37.305 233.811 32.0865 224.801 28.1097C217.807 33.9344 213.116 42.0597 211.569 51.0291C210.022 59.9986 211.72 69.2258 216.358 77.057M191.875 57.5625C191.875 69.996 195.828 81.5085 202.524 90.9104L187.078 106.356L120.152 39.4111C132.179 30.6741 145.909 24.5665 160.452 21.4855C174.994 18.4045 190.022 18.4191 204.558 21.5284C196.352 31.7458 191.878 44.4576 191.875 57.5625ZM200.644 119.922L216.09 104.476C225.492 111.192 237.004 115.125 249.438 115.125C262.54 115.128 275.252 110.661 285.472 102.461C287.019 109.65 287.8 117.069 287.812 124.719C287.812 147.936 280.31 169.426 267.589 186.867L200.644 119.922ZM254.887 201.296L187.078 133.487L175.47 145.096C195.424 167.842 207.669 196.32 210.449 226.451C227.334 221.788 242.53 213 254.887 201.296ZM80.5299 96.5515C85.1925 79.6665 93.9612 64.47 105.666 52.1133L173.513 119.922L161.904 131.53C139.158 111.576 110.661 99.3313 80.5299 96.5515ZM47.9688 115.125C40.3355 115.125 33.0149 118.157 27.6173 123.555C22.2198 128.952 19.1875 136.273 19.1875 143.906V163.094C19.1875 196.171 32.3275 227.894 55.7168 251.283C79.1061 274.673 110.829 287.812 143.906 287.812H163.094C170.727 287.812 178.048 284.78 183.445 279.383C188.843 273.985 191.875 266.665 191.875 259.031V239.844C191.875 206.766 178.735 175.044 155.346 151.654C131.956 128.265 100.234 115.125 67.1562 115.125H47.9688ZM84.3483 180.286C85.2394 179.392 86.2981 178.683 87.4637 178.2C88.6292 177.716 89.8787 177.467 91.1406 177.467C92.4025 177.467 93.652 177.716 94.8176 178.2C95.9831 178.683 97.0418 179.392 97.933 180.286L126.714 209.067C127.606 209.959 128.314 211.018 128.797 212.183C129.279 213.349 129.528 214.598 129.528 215.859C129.528 217.121 129.279 218.37 128.797 219.535C128.314 220.701 127.606 221.76 126.714 222.652C125.822 223.544 124.763 224.251 123.598 224.734C122.432 225.217 121.183 225.465 119.922 225.465C118.66 225.465 117.411 225.217 116.246 224.734C115.08 224.251 114.021 223.544 113.13 222.652L84.3483 193.871C83.4548 192.979 82.746 191.921 82.2623 190.755C81.7787 189.59 81.5297 188.34 81.5297 187.078C81.5297 185.816 81.7787 184.567 82.2623 183.401C82.746 182.236 83.4548 181.177 84.3483 180.286Z" fill="#4A0472" fill-opacity="0.72"/>
</svg>
