<svg width="307" height="307" viewBox="0 0 307 307" fill="none" xmlns="http://www.w3.org/2000/svg">
<path d="M76.7493 281.416C69.7139 281.416 63.6933 278.913 58.6875 273.908C53.6817 268.902 51.1745 262.877 51.166 255.833V51.1663C51.166 44.1309 53.6732 38.1103 58.6875 33.1045C63.7018 28.0987 69.7225 25.5915 76.7493 25.583H230.249C237.285 25.583 243.31 28.0902 248.324 33.1045C253.338 38.1188 255.841 44.1395 255.833 51.1663V255.833C255.833 262.868 253.33 268.893 248.324 273.908C243.318 278.922 237.293 281.425 230.249 281.416H76.7493ZM140.708 140.708L172.687 121.521L204.666 140.708V51.1663H140.708V140.708Z" fill="#4A0472" fill-opacity="0.72"/>
</svg>
