<svg width="257" height="257" viewBox="0 0 257 257" fill="none" xmlns="http://www.w3.org/2000/svg">
<path d="M26.1673 51.75H0.583984V230.833C0.583984 237.618 3.27936 244.126 8.07717 248.924C12.875 253.721 19.3822 256.417 26.1673 256.417H205.251V230.833H26.1673V51.75ZM230.834 0.583374C237.619 0.583374 244.126 3.27875 248.924 8.07656C253.722 12.8744 256.417 19.3816 256.417 26.1667V179.667C256.417 186.452 253.722 192.959 248.924 197.757C244.126 202.555 237.619 205.25 230.834 205.25H77.334C70.5489 205.25 64.0416 202.555 59.2438 197.757C54.446 192.959 51.7506 186.452 51.7506 179.667V26.1667C51.7506 19.3816 54.446 12.8744 59.2438 8.07656C64.0416 3.27875 70.5489 0.583374 77.334 0.583374H230.834ZM192.459 64.5417C192.459 54.364 188.416 44.6032 181.219 37.4065C174.022 30.2098 164.262 26.1667 154.084 26.1667C143.906 26.1667 134.145 30.2098 126.949 37.4065C119.752 44.6032 115.709 54.364 115.709 64.5417C115.709 74.7194 119.752 84.4802 126.949 91.6769C134.145 98.8736 143.906 102.917 154.084 102.917C164.262 102.917 174.022 98.8736 181.219 91.6769C188.416 84.4802 192.459 74.7194 192.459 64.5417ZM77.334 166.875V179.667H230.834V166.875C230.834 141.292 179.667 127.221 154.084 127.221C128.501 127.221 77.334 141.292 77.334 166.875Z" fill="#4A0472" fill-opacity="0.72"/>
</svg>
