<svg width="226" height="226" viewBox="0 0 226 226" fill="none" xmlns="http://www.w3.org/2000/svg">
<path d="M162.188 63.4375C162.188 76.5491 156.979 89.1238 147.708 98.3951C138.436 107.666 125.862 112.875 112.75 112.875C99.6384 112.875 87.0637 107.666 77.7924 98.3951C68.5211 89.1238 63.3125 76.5491 63.3125 63.4375C63.3125 50.3259 68.5211 37.7512 77.7924 28.4799C87.0637 19.2086 99.6384 14 112.75 14C125.862 14 138.436 19.2086 147.708 28.4799C156.979 37.7512 162.188 50.3259 162.188 63.4375ZM148.062 63.4375C148.062 54.072 144.342 45.0902 137.72 38.4678C131.097 31.8454 122.115 28.125 112.75 28.125C103.385 28.125 94.4027 31.8454 87.7803 38.4678C81.1579 45.0902 77.4375 54.072 77.4375 63.4375C77.4375 72.803 81.1579 81.7848 87.7803 88.4072C94.4027 95.0296 103.385 98.75 112.75 98.75C122.115 98.75 131.097 95.0296 137.72 88.4072C144.342 81.7848 148.062 72.803 148.062 63.4375ZM52.7188 127C46.1629 127 39.8756 129.604 35.24 134.24C30.6043 138.876 28 145.163 28 151.719V155.25C28 172.151 38.7562 186.445 54.0253 196.163C69.3792 205.938 90.1641 211.75 112.75 211.75C135.336 211.75 156.114 205.938 171.475 196.163C186.744 186.445 197.5 172.151 197.5 155.25V151.719C197.5 145.163 194.896 138.876 190.26 134.24C185.624 129.604 179.337 127 172.781 127H52.7188ZM42.125 151.719C42.125 148.909 43.2411 146.215 45.2278 144.228C47.2146 142.241 49.9091 141.125 52.7188 141.125H172.781C175.591 141.125 178.285 142.241 180.272 144.228C182.259 146.215 183.375 148.909 183.375 151.719V155.25C183.375 165.653 176.736 176.077 163.89 184.249C151.128 192.37 133.069 197.625 112.75 197.625C92.4312 197.625 74.3724 192.37 61.6104 184.249C48.7567 176.084 42.125 165.646 42.125 155.25V151.719Z" fill="#0B137C"/>
</svg>
