<svg width="307" height="307" viewBox="0 0 307 307" fill="none" xmlns="http://www.w3.org/2000/svg">
<path d="M57.5632 140.708C52.0201 140.708 47.4364 138.896 43.8121 135.272C40.1878 131.648 38.3757 127.064 38.3757 121.521C38.3757 115.978 40.1878 111.394 43.8121 107.77C47.4364 104.146 52.0201 102.333 57.5632 102.333C63.1062 102.333 67.6899 104.146 71.3142 107.77C74.9385 111.394 76.7507 115.978 76.7507 121.521C76.7507 127.064 74.9385 131.648 71.3142 135.272C67.6899 138.896 63.1062 140.708 57.5632 140.708ZM38.3757 281.417V217.458H25.584V166.292C25.584 162.667 26.812 159.631 29.268 157.184C31.724 154.737 34.7599 153.509 38.3757 153.5H76.7507C80.375 153.5 83.4151 154.728 85.8711 157.184C88.3271 159.64 89.5508 162.676 89.5423 166.292V217.458H76.7507V255.833H179.084V191.875H156.699C141.562 191.875 128.719 186.601 118.17 176.052C107.621 165.503 102.343 152.656 102.334 137.51C102.334 126.211 105.374 116.136 111.454 107.284C117.535 98.4319 125.368 91.8783 134.953 87.6229C137.298 73.7653 143.749 62.095 154.307 52.6121C164.864 43.1292 177.387 38.3835 191.876 38.375C206.364 38.3665 218.892 43.1122 229.458 52.6121C240.023 62.1121 246.471 73.7823 248.799 87.6229C258.392 91.8868 266.229 98.4447 272.31 107.297C278.39 116.148 281.426 126.22 281.417 137.51C281.417 152.647 276.143 165.494 265.594 176.052C255.045 186.609 242.198 191.884 227.053 191.875H204.667V255.833H268.626V281.417H38.3757Z" fill="#4A0472" fill-opacity="0.72"/>
</svg>
